<svg width="16" height="16" viewBox="0 0 16 16" fill="none" xmlns="http://www.w3.org/2000/svg">
  <path d="M8 1C4.14 1 1 4.14 1 8C1 11.86 4.14 15 8 15C11.86 15 15 11.86 15 8C15 4.14 11.86 1 8 1ZM8 13C5.24 13 3 10.76 3 8C3 5.24 5.24 3 8 3C10.76 3 13 5.24 13 8C13 10.76 10.76 13 8 13ZM11 7.5H8.5V5C8.5 4.72 8.28 4.5 8 4.5C7.72 4.5 7.5 4.72 7.5 5V7.5H5C4.72 7.5 4.5 7.72 4.5 8C4.5 8.28 4.72 8.5 5 8.5H7.5V11C7.5 11.28 7.72 11.5 8 11.5C8.28 11.5 8.5 11.28 8.5 11V8.5H11C11.28 8.5 11.5 8.28 11.5 8C11.5 7.72 11.28 7.5 11 7.5Z" fill="#0969DA"/>
</svg>
