<svg width="16" height="16" viewBox="0 0 16 16" fill="none" xmlns="http://www.w3.org/2000/svg">
  <path d="M5 2C4.44772 2 4 2.44772 4 3V13C4 13.5523 4.44772 14 5 14H11C11.5523 14 12 13.5523 12 13V7H9C8.44772 7 8 6.55228 8 6V3H5ZM9 2.5V6H12.5L9 2.5ZM6 8H10C10.2761 8 10.5 8.22386 10.5 8.5C10.5 8.77614 10.2761 9 10 9H6C5.72386 9 5.5 8.77614 5.5 8.5C5.5 8.22386 5.72386 8 6 8ZM6 10H10C10.2761 10 10.5 10.2239 10.5 10.5C10.5 10.7761 10.2761 11 10 11H6C5.72386 11 5.5 10.7761 5.5 10.5C5.5 10.2239 5.72386 10 6 10Z" fill="#6C6C6C"/>
</svg>
