<svg width="16" height="16" viewBox="0 0 16 16" fill="none" xmlns="http://www.w3.org/2000/svg">
  <path d="M3.12 5.41C2.17 5.41 1.4 4.64 1.4 3.69C1.4 2.74 2.17 1.97 3.12 1.97C4.07 1.97 4.84 2.74 4.84 3.69C4.84 4.64 4.07 5.41 3.12 5.41ZM10.15 10.92C9.2 10.92 8.43 11.69 8.43 12.64C8.43 13.59 9.2 14.36 10.15 14.36C11.1 14.36 11.87 13.59 11.87 12.64C11.87 11.69 11.1 10.92 10.15 10.92ZM10.15 1.97C9.2 1.97 8.43 2.74 8.43 3.69C8.43 4.64 9.2 5.41 10.15 5.41C11.1 5.41 11.87 4.64 11.87 3.69C11.87 2.74 11.1 1.97 10.15 1.97ZM12 7L14 9L16 7" stroke="#CF222E" stroke-width="1.5" fill="none"/>
</svg>
