<svg width="16" height="16" viewBox="0 0 16 16" fill="none" xmlns="http://www.w3.org/2000/svg">
  <path d="M5.5 3.5C4.67 3.5 4 2.83 4 2C4 1.17 4.67 0.5 5.5 0.5C6.33 0.5 7 1.17 7 2C7 2.83 6.33 3.5 5.5 3.5ZM12.5 10C11.67 10 11 10.67 11 11.5C11 12.33 11.67 13 12.5 13C13.33 13 14 12.33 14 11.5C14 10.67 13.33 10 12.5 10ZM12.5 3C11.67 3 11 3.67 11 4.5C11 5.33 11.67 6 12.5 6C13.33 6 14 5.33 14 4.5C14 3.67 13.33 3 12.5 3ZM7.85 5.15L11.35 8.65C11.55 8.85 11.55 9.16 11.35 9.36L7.85 12.86C7.65 13.06 7.34 13.06 7.14 12.86L3.64 9.36C3.44 9.16 3.44 8.85 3.64 8.65L7.14 5.15C7.34 4.95 7.65 4.95 7.85 5.15Z" fill="#8250DF"/>
</svg>
