<svg width="16" height="16" viewBox="0 0 16 16" fill="none" xmlns="http://www.w3.org/2000/svg">
  <path d="M7.5 1.5C7.5 0.67 6.83 0 6 0C5.17 0 4.5 0.67 4.5 1.5C4.5 2.12 4.87 2.65 5.39 2.88L3.97 5.54C3.7 5.46 3.41 5.41 3.12 5.41C2.17 5.41 1.4 6.18 1.4 7.13C1.4 7.54 1.52 7.93 1.73 8.25L0.23 9.75C-0.08 9.44 -0.08 8.93 0.23 8.62L1.73 7.12C2.05 7.33 2.44 7.45 2.85 7.45C3.8 7.45 4.57 6.68 4.57 5.73C4.57 5.44 4.52 5.15 4.44 4.88L5.86 2.22C6.07 2.28 6.29 2.31 6.5 2.31C6.71 2.31 6.93 2.28 7.14 2.22L8.56 4.88C8.48 5.15 8.43 5.44 8.43 5.73C8.43 6.68 9.2 7.45 10.15 7.45C10.56 7.45 10.95 7.33 11.27 7.12L12.77 8.62C13.08 8.93 13.08 9.44 12.77 9.75L11.27 11.25C10.95 11.04 10.56 10.92 10.15 10.92C9.2 10.92 8.43 11.69 8.43 12.64C8.43 13.59 9.2 14.36 10.15 14.36C11.1 14.36 11.87 13.59 11.87 12.64C11.87 12.35 11.82 12.06 11.74 11.79L13.16 9.13C13.69 9.36 14.06 9.89 14.06 10.51C14.06 11.34 13.39 12.01 12.56 12.01C11.73 12.01 11.06 11.34 11.06 10.51C11.06 10.12 11.21 9.77 11.45 9.5L10.1 8.15C9.83 8.39 9.48 8.54 9.09 8.54C8.14 8.54 7.37 7.77 7.37 6.82C7.37 6.53 7.42 6.24 7.5 5.97L6.08 3.31C6.29 3.25 6.5 3.22 6.71 3.22C7.54 3.22 8.21 2.55 8.21 1.72C8.21 0.89 7.54 0.22 6.71 0.22C5.88 0.22 5.21 0.89 5.21 1.72C5.21 2.13 5.36 2.5 5.6 2.78L4.18 5.44C3.97 5.38 3.75 5.35 3.54 5.35C2.71 5.35 2.04 6.02 2.04 6.85C2.04 7.68 2.71 8.35 3.54 8.35C3.93 8.35 4.28 8.2 4.55 7.96L5.9 9.31C5.66 9.58 5.51 9.93 5.51 10.32C5.51 11.27 6.28 12.04 7.23 12.04C7.64 12.04 8.03 11.92 8.35 11.71L9.85 13.21C9.54 13.52 9.54 13.93 9.85 14.24" fill="#2DA44E"/>
</svg>
